<svg id="Layer_3" enable-background="new 0 0 64 64" height="512" viewBox="0 0 64 64" width="512" xmlns="http://www.w3.org/2000/svg"><g><path d="m62 16v46l-7-3-7 3v-46z" fill="#8892a0"/><path d="m26 16h22v46h-22z" fill="#a8b0bc"/><path d="m26 53.355c8.372-7.045 13.697-17.595 13.697-29.394 0-2.73-.29-5.392-.831-7.961h-12.866z" fill="#c1c8d1"/><path d="m48.002 44.805c-.909-.525-1.944-.805-3.002-.805-1.298 0-2.561.421-3.6 1.2l-.8.6c-1.039.779-2.302 1.2-3.6 1.2-1.298 0-2.561-.421-3.6-1.2l-.8-.6c-1.039-.779-2.302-1.2-3.6-1.2-1.058 0-2.093.28-3.001.805v6c.908-.525 1.943-.805 3.001-.805 1.298 0 2.561.421 3.6 1.2l.8.6c1.039.779 2.302 1.2 3.6 1.2 1.298 0 2.561-.421 3.6-1.2l.8-.6c1.039-.779 2.302-1.2 3.6-1.2 1.058 0 2.093.28 3.002.805z" fill="#d5cec2"/><path d="m62 62-7-3-7 3v-4l7-3 7 3z" fill="#758190"/><path d="m48 16 7-8 7 8z" fill="#758190"/><path d="m48 16 7-8h-22l-7 8z" fill="#8892a0"/><path d="m20 62h-16c-1.105 0-2-.895-2-2v-35c0-.552.448-1 1-1h18c.552 0 1 .448 1 1v35c0 1.105-.895 2-2 2z" fill="#c7e2fc"/><path d="m20 27.817c0-1.293-.089-2.565-.244-3.817h-16.756c-.552 0-1 .448-1 1v30.841c10.619-4.865 18-15.579 18-28.024z" fill="#ebf7fe"/><path d="m22 32.344v27.656c0 1.105-.895 2-2 2h-16c-1.105 0-2-.895-2-2v-27.657c.638-.226 1.313-.343 1.998-.343 1.298 0 2.561.421 3.6 1.2l.8.6c1.039.779 2.302 1.2 3.6 1.2 1.298 0 2.561-.421 3.6-1.2l.8-.6c1.039-.779 2.302-1.2 3.6-1.2.687 0 1.363.118 2.002.344z" fill="#d5cec2"/><path d="m55 8v-4c0-1.105-.895-2-2-2h-18c-1.105 0-2 .895-2 2v4" fill="#758190"/><path d="m42 30h-10c-1.105 0-2-.895-2-2v-6c0-1.105.895-2 2-2h10c1.105 0 2 .895 2 2v6c0 1.105-.895 2-2 2z" fill="#758190"/><g><path d="m50.999 19h1.999v22h-1.999z" fill="#a8b0bc"/></g><g><path d="m56.999 28h1.999v22h-1.999z" fill="#a8b0bc"/></g><g><path d="m56.999 24h1.999v2h-1.999z" fill="#a8b0bc"/></g><g><path d="m50.999 43h1.999v2h-1.999z" fill="#a8b0bc"/></g><g fill="#e7e4dd"><path d="m33.334 41.828-2.401-1.799c-.316-.237-.555-.562-.686-.934l-.131-.372c-.368-1.041.178-2.184 1.219-2.552 1.041-.368 2.184.178 2.552 1.219l.131.372c.132.372.15.775.053 1.158z"/><path d="m40.798 41.828 2.401-1.799c.316-.237.555-.562.686-.934l.131-.372c.368-1.041-.178-2.184-1.219-2.552-1.041-.368-2.184.178-2.552 1.219l-.131.372c-.132.372-.15.775-.053 1.158z"/><path d="m19.707 32.024c-1.194.059-2.348.456-3.309 1.176l-.8.6c-1.039.779-2.302 1.2-3.6 1.2s-2.561-.421-3.6-1.2l-.8-.6c-1.038-.779-2.302-1.2-3.6-1.2-.685 0-1.36.117-1.998.343v23.498c9.401-4.307 16.256-13.199 17.707-23.817z"/></g><path d="m30 22v6c0 1.105.895 2 2 2h7.221c.311-1.968.476-3.984.476-6.039 0-1.338-.069-2.659-.203-3.961h-7.494c-1.105 0-2 .895-2 2z" fill="#8892a0"/><path d="m32.6 45.2c-1.039-.779-2.302-1.2-3.6-1.2-1.058 0-2.093.28-3.001.805v6c.908-.525 1.943-.805 3.001-.805.161 0 .318.026.477.039 1.301-1.406 2.501-2.906 3.582-4.494z" fill="#e7e4dd"/></g></svg>